<svg xmlns="http://www.w3.org/2000/svg" viewBox="0 0 500 300">
<defs><linearGradient id="g" x1="0" y1="0" x2="1" y2="1"><stop stop-color="#f3efe5"/><stop offset="1" stop-color="#fff"/></linearGradient></defs>
<rect width="500" height="300" fill="url(#g)"/><g fill="none" stroke="#8c6b45" stroke-width="2.5" opacity=".52"><path d="M25 260Q70 170 125 235Q85 220 25 260M475 260Q430 170 375 235Q415 220 475 260"/><circle cx="90" cy="95" r="12"/><circle cx="410" cy="95" r="12"/></g><g fill="#8c6b45" opacity=".11"><circle cx="60" cy="70" r="18"/><circle cx="440" cy="70" r="18"/><circle cx="115" cy="190" r="25"/><circle cx="385" cy="190" r="25"/></g>
<rect x="15" y="15" width="470" height="270" rx="19" fill="none" stroke="#8c6b45" opacity=".22"/>
<g text-anchor="middle" fill="#8c6b45">
<text x="250" y="92" font-family="Arial,sans-serif" font-size="10" font-weight="700" letter-spacing="3">WEDDING CONCEPT</text>
<text x="250" y="138" font-family="Georgia,serif" font-size="26" font-weight="700">GARDEN ROMANCE</text>
<line x1="195" y1="155" x2="305" y2="155" stroke="#8c6b45" opacity=".3"/>
<text x="250" y="182" font-family="Georgia,serif" font-size="15">YOUR NAMES</text>
<text x="250" y="207" font-family="Arial,sans-serif" font-size="9" letter-spacing="2">DD MONTH YYYY</text>
<text x="250" y="226" font-family="Arial,sans-serif" font-size="8" letter-spacing="1.3">GARDEN</text>
</g></svg>